/* XPM */
static char *_516859545759[] = {
/* columns rows colors chars-per-pixel */
"64 64 73 1 ",
"  c #0E6CB8",
". c #106CB7",
"X c #126FB9",
"o c #1671BA",
"O c #1D75BC",
"+ c #1F78BE",
"@ c #2E79B4",
"# c #2077BC",
"$ c #247ABE",
"% c #287CBF",
"& c #347BB4",
"* c #397CB2",
"= c #317DB9",
"- c #1776C1",
"; c #1876C1",
": c #1F7BC5",
"> c #267CC0",
", c #2A7EC1",
"< c #3F81B6",
"1 c #3682BE",
"2 c #4483B6",
"3 c #4286BC",
"4 c #2E81C2",
"5 c #2E84C9",
"6 c #3384C4",
"7 c #3887C6",
"8 c #3A89C6",
"9 c #3286CA",
"0 c #3589CC",
"q c #3A89C8",
"w c #428CC7",
"e c #448EC8",
"r c #4C92CA",
"t c #5296CC",
"y c #5699CD",
"u c #5B9BCE",
"i c #5F9ED0",
"p c #619ED0",
"a c #65A2D2",
"s c #6AA4D3",
"d c #73AAD6",
"f c #79ADD7",
"g c #7CAFD8",
"h c #7EB1D8",
"j c #84B4DA",
"k c #89B7DC",
"l c #8DBADD",
"z c #92BDDE",
"x c #94BEE0",
"c c #9CC2E1",
"v c #A1C6E3",
"b c #A6C9E5",
"n c #ADCDE6",
"m c #B0CFE7",
"M c #B2D0E7",
"N c #B5D2E9",
"B c #BCD6EB",
"V c #BFD8EB",
"C c #C4DBED",
"Z c #CADFEF",
"A c #CEE1F0",
"S c #D3E4F2",
"D c #D8E7F3",
"F c #DEEAF4",
"G c #E1EDF6",
"H c #E7F0F7",
"J c #E8F1F7",
"K c #E7F0F8",
"L c #ECF3F9",
"P c #F1F6FA",
"I c #F5F9FB",
"U c #FDFEFE",
"Y c None",
/* pixels */
"YYYYYYYY%,,,,44444446664666666666666666666777777888888q8YYYYYYYY",
"YYYYYY=,,,,,,,44,4444666666666666666666667687787788q888883YYYYYY",
"YYYY*>,,,,,,,,,44,444666466666666666666666777678788888888q02YYYY",
"YYY&>%,,,,,,,,,44,444466664,>>$>66666666666676688788q8q8888q7YYY",
"YY*>%$,,,,,,,,,,44,4466,$$4epdkk7666666666677767778888888888q3YY",
"YY:%>%$,,,,,,,,,44,64$$rkCHPLHGS846666666666776688788q88888880YY",
"Y&>$>>$%,,,,,,,,,6,O6hSIGNjue64,66666666666667767777888888888q7Y",
"Y$$>>,,%,,,,,,,,4+4lLLbu4$$>,6666666666666666676688788888888880Y",
"Y$>>>>>$,,,,,,4$#dJLk6+$466666666666666666666777677788888888880Y",
"%$>>>>>%$,,,,4+6BUc6O,66666646666666666666666667667877888888880Y",
">$$>>>,>$%,,4OtLFrO,644444664466666666666666667776788788q888880Y",
">$$$>>>,,$,,OsUn$$6444,4466666666666666666666666776777888888q80Y",
",$$>$>>>,$,OdUlO,4,444,44666,$+O$#$>466666666667676688788q88880Y",
">$$$>>$>>,osUjo,,,,,,4,46>O,rdlvbvldr4$,66666666777677788q8qq80Y",
",$$$>>>>,OrUzo,,,,,,,46$$tvGILFSASFLIGvy>,666666767678878888q80Y",
"%$$$$$>,$4Lno,,,,,,,4,OyCUSlu6,$$$,7uzDUCu>676666777677778q8q80Y",
",$$$$>>,OBF$$,,,,,,4$6nUBy$O>4466664>$,uCUn64866677766878888q80Y",
",$$$$$,OsUrO,,,,,,4OrGHpO$4666664666666,$aLGt,86667776778788q70Y",
"$$$$$$$%Lco4$%,,,,OuUN,$64444666646666666>6BUp>8666676778888q80Y",
">$$$$%olP,$,,$,,,OtUvO,64,,4446664466666666>bUu,766777678788880Y",
"$$$$$$%Ljo,>,%%,$7InO,4,,4,,4466664666666666>mPe676677667778880Y",
"$$$$,ofP4$>>>,$,$AA$,4,,,444446666466666666664SA>66677766778880Y",
">$$$$OSvo,>>$>,OjU8$4,,,,,4,,44444666666666664rUx>7667766777780Y",
">$$$OwItO,>>>,$4IlO4,,,,,,,46666664$$666666666,gv66666776677880Y",
"$$$$XjG$$$$>$,olL,,,,,,,,,6SGGGGGGZnd6466666666,,66666676678870Y",
"$$$$oBnX%$$>>>$GzO4,,,,,,,7PUUUUUUUUUAw466666666666666677777870Y",
"$$$#$Hfo,$$>,OyUw$,,,,,,,%7LUUUUUUUUUUn>66666666666666667767770Y",
"$$$O7PtO,$$$,ozFO$,,,,,,,,7LUUUcpjLUUUG666666666666666667767870Y",
"$$$otL7$,$$$,oCno,$,,,,,,,6LUUUsOokUUUG646666666666666666776770Y",
"$$$XsH,Oo$%,,$Gho,$%,,,,,,6LUUUsO6NUUUC>66666666666666666676779Y",
"$$$XhGOajO X ,PaO,$$,,,,,,6LUUUSNDUUUIu>66666666666666666677679Y",
"$$>XjSrjtNzczrLuO,,$%,,,,,6LUUUUUUUUGu+646666666666666666667670Y",
"$$$XjS7ldlassePuO,>%$,,,,>6LUUUUUUUUICt,64666666666666666677770Y",
"$$$XfGowuOooX%PaO,>>>%,,,>6LUUUNkcLUUUD646666666666666666667779Y",
"$$$osK,OO$,,>$Ggo,$,>$,,,>6LUUUaoOaUUUUu>6666666666666666667779Y",
"$$$OrP7O$$$$>oCbo,>>>$%,,>6LUUUsOOtUUUUa$6466666666666666666779Y",
"$$$O6Puo$$$$,XzDO,>>>>$,,>6LUUUcidSUUUUt,6446666666666666666779Y",
"$#$$OFjX$$$$>OtUwO,$>,$,,$6LUUUUUUUUUUB,66646666666666666666679Y",
"$#$$XnBX$$$$$$#Gzo,>>>>$,$6PUUUUUUUUUC8,66644666666666666666679Y",
"$$#$XdL%#$$$$,XkL,$,>>>$,>6SGGGGGGSnd,,64666466,>66666666666679Y",
"$$$$O6Ipo$$$$$$,Iko,>>>$$,,4,44446,$$,44446646>fv46666666666669Y",
"$#$#$oBBX$$$$$,ohU8#,>>>$$,,,,,,,,,66,,444666,eUz$6666666666669Y",
"$O$$$ouU7O$$$$$$OAAO>,>>,$,,,,,,,,,,44,446466,SA$66666666666669Y",
"$##$#$OFv.$$$$$$O6Ino,,>,%$,,,,,,,,,44,,4466$nP8,66666666666669Y",
"$O#$#$osU8O$$$$$,orUcO$,>,$$,,,,,,,,,,4,464$bUy$666666666666679Y",
"$O##$#$OSBX$$$$$$,otUN%O,,,$,,,,,,,,,,446$6BUu$6466666666666669Y",
"$OO#$#$OrUsX$$$$$$,oeGHuOO,,,,,,,,,,464$OaLFr$66466666666666669Y",
"$OO##$#$XzU6O$$$$$$,O,nUBtOoO$,,,,,$$O$yVUn6>666466666666666669Y",
"$OOO$$$#$OASO#$$$$$$$$otCUSlt6$OOO$6tlSUCyO,6466646666666666669Y",
"$OOOO#$#$O,JBo$$$$$>$$,OOrvGILFSZSFLIGvt$$444666646666666666669Y",
"$O$OO#$$O$O8UMoO$$$$>$$,,Oo$wslcbclse$O$44,44466664666666666669Y",
"$OOOOO#$$#$owIV#O$$$$$$$$,,>$OOXx,oO$,44,,4,4466666466666666665Y",
"$OO$OO#$$##$o7FF8X$%$$$$>>>>,,,$Be>,,,,,,4444446666466666666665Y",
"$OOOOO##$#$$$O$BUfOO%,$$$$>>>>,$n8>,,,,,,,44,446666666666666665Y",
"$O+O$OO$$$#$$$OojUStoO$,$$$>>>$%Sr$,,,,,,,,4,444666646666666665Y",
"YOO$OOO#$$$#$$$$X7NUByOoO$,,,,$jsl6,,,,,,,444,44666664666666665Y",
"Y#OOOOOO#$$#$$$$$OotBUSkw#ooOOOltz6>,,,,,,,,4,44466664666666664Y",
"Y@O##OOOO#$##$$$$$$OoecGIGNjstwrjr$,,,,,,,,444,4466666466666661Y",
"YY-#OO$OO#$$#$$$$$$$$OX#rjNFLLPG$O,,,,,,,,,,,4,,44466666666665YY",
"YY&-#OOOOO#$$#$$$$$$$$%$OoXO48rr4,$%,,,,,,,,,44,4446666466665<YY",
"YYY@-###OO#$$#$$$$$$$$$$$,$$$#OO$>,$%,,,,,,,,,44,446666466646YYY",
"YYYY&-O##OO#$$#$$$$$$$$$$$$$$,,,>>,$,,,,,,,,,444,44466666452YYYY",
"YYYYYY#;OOO#$$#$$$$$$$$$$$$$$$>>>>>>%,,,,,,,,,,44444466441YYYYYY",
"YYYYYYYYYOOO$$$#$$$$$$$$$$>$$$$$>>>>>%,,,,,,,,444,44664YYYYYYYYY"
};
