/* XPM */
static char *_516859534509[] = {
/* columns rows colors chars-per-pixel */
"16 16 195 2 ",
"   c #0D6BB6",
".  c #0F6CB7",
"X  c #106DB7",
"o  c #116DB7",
"O  c #116EB9",
"+  c #136EB8",
"@  c #146EB8",
"#  c #146FB8",
"$  c #156FB8",
"%  c #1470B9",
"&  c #1571B9",
"*  c #1771B9",
"=  c #1772BA",
"-  c #1871B9",
";  c #1B73B9",
":  c #1972BA",
">  c #1873BA",
",  c #1973BA",
"<  c #1A73BA",
"1  c #1B74BB",
"2  c #1C74BA",
"3  c #1C74BB",
"4  c #1D75BB",
"5  c #1E75BA",
"6  c #1B75BE",
"7  c #1C75BD",
"8  c #1E75BC",
"9  c #1D76BD",
"0  c #1E76BD",
"q  c #1F77BD",
"w  c #2C76B2",
"e  c #2D7AB7",
"r  c #2175B8",
"t  c #2075B9",
"y  c #2176BD",
"u  c #2077BD",
"i  c #2277BC",
"p  c #2478BB",
"a  c #2379BC",
"s  c #2278BD",
"d  c #2379BD",
"f  c #2278BE",
"g  c #2579BC",
"h  c #2578BD",
"j  c #2679BC",
"k  c #267ABD",
"l  c #2479BE",
"z  c #257ABE",
"x  c #247ABF",
"c  c #257ABF",
"v  c #267BBE",
"b  c #277BBF",
"n  c #287CBE",
"m  c #297CBE",
"M  c #297DBF",
"N  c #2A7CBF",
"B  c #2B7EBF",
"V  c #2C7FBF",
"C  c #257AC0",
"Z  c #287CC0",
"A  c #287DC0",
"S  c #297DC0",
"D  c #2B7DC0",
"F  c #2A7DC1",
"G  c #2B7EC0",
"H  c #2A7FC2",
"J  c #2E7FC0",
"K  c #2E7FC1",
"L  c #3A80B6",
"P  c #4E81A9",
"I  c #4E81AA",
"U  c #4F82AA",
"Y  c #5081AB",
"T  c #5083AB",
"R  c #5183AC",
"E  c #2E80C0",
"W  c #2E80C1",
"Q  c #2F80C1",
"!  c #2F81C1",
"~  c #2F81C2",
"^  c #2C80C4",
"/  c #2E82C5",
"(  c #2C82C6",
")  c #2F83C6",
"_  c #3180C0",
"`  c #3080C1",
"'  c #3081C1",
"]  c #3181C1",
"[  c #3282C1",
"{  c #3080C2",
"}  c #3082C2",
"|  c #3182C2",
" . c #3182C3",
".. c #3183C3",
"X. c #3282C2",
"o. c #3383C2",
"O. c #3283C3",
"+. c #3383C3",
"@. c #3483C2",
"#. c #3583C2",
"$. c #3483C3",
"%. c #3683C3",
"&. c #3384C3",
"*. c #3484C3",
"=. c #3584C3",
"-. c #3684C2",
";. c #3684C3",
":. c #3685C3",
">. c #3786C3",
",. c #3083C6",
"<. c #3284C6",
"1. c #3285C7",
"2. c #3386C7",
"3. c #3685C4",
"4. c #3785C4",
"5. c #3786C4",
"6. c #3786C5",
"7. c #3486C7",
"8. c #3885C3",
"9. c #3985C3",
"0. c #3986C3",
"q. c #3C87C2",
"w. c #3C87C3",
"e. c #3886C4",
"r. c #3887C4",
"t. c #3987C5",
"y. c #3887C6",
"u. c #3C88C5",
"i. c #3E89C5",
"p. c #3E8AC5",
"a. c #3587C8",
"s. c #3687C8",
"d. c #3489CA",
"f. c #4089C5",
"g. c #418AC5",
"h. c #418BC5",
"j. c #408AC6",
"k. c #408BC6",
"l. c #438BC7",
"z. c #488FC7",
"x. c #458EC8",
"c. c #4A90C8",
"v. c #4A90C9",
"b. c #4F93CA",
"n. c #5195CA",
"m. c #5095CB",
"M. c #5396CB",
"N. c #5797CB",
"B. c #5697CC",
"V. c #5698CB",
"C. c #5898CB",
"Z. c #5999CC",
"A. c #5899CD",
"S. c #5999CD",
"D. c #5A99CC",
"F. c #5A99CD",
"G. c #599ACD",
"H. c #5A9ACD",
"J. c #5B9ACD",
"K. c #5D9BCD",
"L. c #5C9BCE",
"P. c #5D9DCE",
"I. c #5E9CCE",
"U. c #5F9CCF",
"Y. c #609ECF",
"T. c #619ECF",
"R. c #639ECF",
"E. c #639FCF",
"W. c #64A0CF",
"Q. c #65A1D0",
"!. c #67A2D1",
"~. c #69A3D1",
"^. c #6BA3D2",
"/. c #6AA4D2",
"(. c #6BA4D2",
"). c #6BA5D2",
"_. c #6CA5D1",
"`. c #6CA5D2",
"'. c #6FA6D3",
"]. c #6FA7D3",
"[. c #71A8D3",
"{. c #71A8D4",
"}. c #74AAD5",
"|. c #80B1D9",
" X c #9AC1E0",
".X c #ABCCE5",
"XX c #BED7EA",
"oX c #BFD8EB",
"OX c #C2D9EB",
"+X c #CCDFEE",
"@X c #CCDFEF",
"#X c #CFE1F0",
"$X c #DAE8F3",
"%X c #DCE9F3",
"&X c None",
/* pixels */
"&X&Xn G K 7 7 v W 3.3.:.r.r.&X&X",
"&Xe G v v z.W.(.3.&.3.3.3.r.p.&X",
"v v u K '.P.9.W G A O.3.3.9.d.&X",
"h i K {.:.7 v.Y.Q.A.:.W 3.:.s.R ",
"v 2 (.$.s '.D.p.p.D.{.x.O.3.d.R ",
"@ f.D.& (.f.7 W W 7 3.{.9.3.3.R ",
"X D.N 9.I.& M.#XOX|.C 3.3.O.2.U ",
"@ R.f.I.h., D.%X#X Xs &.O.3.2.U ",
"X R.f.L.f.& D.$XoX.Xs O.O.$.&.U ",
"  C.N $.I.O n.+XoX|.v O.$.O.O.U ",
"X q.D.X /.r.: G K > &.[.O.K ,.U ",
"u : E.O.3 ^.V.:.:.b.[.p.G O.) U ",
"u : v _.$.$ p.R.(.b.K A O.K O.U ",
"i 5 : p E.D.K f.z.& G K K K ) &X",
"&Xi 7 5 : 9.N.U.O.v G G K ^ ^ &X",
"&X&Xw 7 h 2 $ $ v v A G G L &X&X"
};
