/* XPM */
static char *_516859550962[] = {
/* columns rows colors chars-per-pixel */
"128 128 78 1 ",
"  c #0B6AB7",
". c #0E6CB8",
"X c #126FBA",
"o c #1671BA",
"O c #1C75BD",
"+ c #1F78BE",
"@ c #2077BD",
"# c #2379BE",
"$ c #297CBF",
"% c #347EBA",
"& c #1A77C1",
"* c #1D79C2",
"= c #267BC0",
"- c #2A7EC1",
"; c #227EC8",
": c #3680BB",
"> c #3D83BB",
", c #4286BD",
"< c #2D81C2",
"1 c #2782CA",
"2 c #2D84C9",
"3 c #3384C5",
"4 c #3887C6",
"5 c #3788C7",
"6 c #3A89C7",
"7 c #3287CA",
"8 c #3589CC",
"9 c #3B8AC8",
"0 c #408BC7",
"q c #438DC9",
"w c #488FC9",
"e c #4790C9",
"r c #4C93CB",
"t c #5296CD",
"y c #5698CE",
"u c #5A9BCF",
"i c #5E9ED0",
"p c #609FD0",
"a c #64A1D2",
"s c #6BA5D4",
"d c #6FA8D5",
"f c #73AAD6",
"g c #78ADD7",
"h c #77ACD8",
"j c #7AAED8",
"k c #7EB1D9",
"l c #83B4DB",
"z c #88B7DC",
"x c #8CB9DD",
"c c #92BDDF",
"v c #95BFE0",
"b c #97C0E0",
"n c #9CC3E2",
"m c #A2C6E4",
"M c #A5C9E5",
"N c #AACCE6",
"B c #AFCEE8",
"V c #B0CFE7",
"C c #B1CFE8",
"Z c #B4D1E9",
"A c #B9D5EA",
"S c #BFD8EC",
"D c #C3DBED",
"F c #CADFEF",
"G c #CBDFF0",
"H c #CDE1F0",
"J c #D4E5F2",
"K c #D8E7F3",
"L c #DCEAF4",
"P c #E3EEF6",
"I c #E6F0F7",
"U c #E8F1F7",
"Y c #E7F0F8",
"T c #EBF2F9",
"R c #F1F7FB",
"E c #F6F9FC",
"W c #FEFEFF",
"Q c None",
/* pixels */
"QQQQQQQQQQQQQQQQ:=<<-<<-<<-<<<<<-<3<<33333333333333333333333333333333333333333333344666663664664696969999996995>QQQQQQQQQQQQQQQQ",
"QQQQQQQQQQQQQQ%------<<--<<<<<<<<<<<<33333333333<33333333333333333333333333333333463466664466666669699999999996696QQQQQQQQQQQQQQ",
"QQQQQQQQQQQQ==----<-<<<<-<<-<<<<<-<3<<333333333333333333333333333333333333333333334466666636666666666699999999996998,QQQQQQQQQQQ",
"QQQQQQQQQQ;-----------<---<<<<<<<<<<3<33333333333<33333333333333333333333333333333364466644466666469699999999966966698QQQQQQQQQQ",
"QQQQQQQQ==---------<-<<<<-<<-<<<<<-<<<<333333333333333333333333333333333333333333334466666636666666696699999999996666697QQQQQQQQ",
"QQQQQQQ==$-------------<---<<<<<<<<<<3<33333333333<3333333333333333333333333333333336466664446666646969999999999999969699QQQQQQQ",
"QQQQQQ=-------------<-<<<<-<<-<<<<<-<<<<3333333333333333333333333333333333333333333344446666366666666666999999999996669998QQQQQQ",
"QQQQQ==---#-------------<---<<<<<<<<<<3<333333333333333333----==33333333333333333333344666644466666469699999999999999669608QQQQQ",
"QQQQQ=---------------<-<<<<--<-<<<<<<<<3<<333333333<====<6rtiass333333333333333333333364466663466666666669999999999966699997QQQQ",
"QQQQ=$-----#-------------<---<<<<<<<<-<<<3333333-==3yfvZJLTEWWWW9<3333333333333333333344666644466666469699999999999999699669QQQQ",
"QQQ=$=-=--------------<-<<<<--<-<<<<<-<<3<333==3ylALEWWWWWWWWWWW9<33333333333333333333364466663466666666669999999999966699968QQQ",
"QQQ=-=------#-------------<---<<<<<<<<-<33<#<ubJEWWWWWTJDNclfsau3333333333333333333333344666644466666469699999999999999699699QQQ",
"QQ=$==--=--------------<-<<<<--<-<<<<<<3-=qzJWWWWWLZzie3-==-----33333333333333333333333364466663466666666669999999999966699668QQ",
"QQ=-===------#-------------<---<<<<<<3=#tMTWWWWFcu4===-33333333333333333333333333333333364666644466666469699999999999999669999QQ",
"QQ==--==-=--------------<-<-<<-<<-<3=#tZEWWWJct<=-<333333333333333333333333333333333333346446666346666666666999999999996966969QQ",
"Q-#-====------#------------<<---<<<#eNEWWWSs3=-33333333333333333333333333333333333333333364666644466666469696999999999996669968Q",
"Q-#----==-=------------------<--3#3cRWWEZy-=<33333333333<3333333333333333333333333333333346446666366666666669999999999999966998Q",
"Q===--===-----------------<-<-<-#pJWWWAy##333<333333333333333333333333333333333333333333336466664446666666666699999999999666968Q",
"Q#-#=---==-=----#------------<#<nWWWJs==3<<<3<33333333333<333333333333333333333333333333334644666644666664696999999999999996699Q",
"Q==#-=-===-----------------<<OrHWWRc3#33<<-<<<<33333333333333333333333333333333333333333333646666463664666666669999999999966669Q",
"Q#===----=--=----#---------<OfRWWJy#<3<<<<<<<3<33333333333<33333333333333333333333333333333464466644466666469699999999999999669Q",
"Q##====-===--------------<-#cWWWn<#3<-<<<<<-<<<<3333333333333333333333333333333333333333333364646666366466666666999999999996669Q",
"Q=##-#----==------#-----<=-NWWRfO-<-<<<<<<<<<<3<33333333333<3333333333333333333333333333333346466664446666646969999999999999969Q",
"Q###====-=-==-=--------<=<DWWPrO<<---<-<<<<<-<<<<333333333333333333333333333333333333333333334444666634646666666699999999999668Q",
"Q==##-#---===------#---#3FWWH6#<<----<<<<<<<<<<3<333333333333333333333333333333333333333333333646666444666664696999999999999969Q",
"Q=###====---==-=----=-=<FWWD<#<-<<<---<-<<<<<-<<<<333333333<-===#===-<333333333333333333333333464466663464666666669999999999969Q",
"Q===##-#---===-------#-DWWA-=-----<<--<<<<<<<<<<3<33333-==-6risfjhfsir6<-=<3333333333333333333364666644466666469699999999999969Q",
"Q==###===----=--=----+ZWWD-=<--<-<<----<-<<<<<-<3333==<ykMFPRWWWWWWWWRPHNky3=-3333333333333333346446666346466666669999999999969Q",
"Q====##-#---===-----OcWWH<=<------<<<--<<<<<<<<<3<#3inJEWWWWWWWWWWWWWWWWWWEKnp3=33333333333333336466664446666646969999999999969Q",
"Q===###===----==-=-OdWWP4#<-----<-<-----<-<<<<3-#6xJWWWWWPDMxfauttuafxNDIWWWWWJxq=333333333333334644666634646666666999999999969Q",
"Q=====##-#---===--#rRWRrO<---------<<<-<<<<<3<#0nTWWWEDcu6-#====-----==<qicDEWWWTnq-3333333333333646666444666664696999999999969Q",
"Q====###===----=-=-JWWfO<---------------<<<3#3xTWWWJxr-#-<33333333333333<-=<tcJWWWTx3-33333333333464666663464666666699999999969Q",
"Q======##-#----=-OnWWnO-----------<-<<<--3-#aJWWWFd3#-3333333333333333333333<=3fHWWWJa-3633333333344666644466666469696999999969Q",
"Q=====###===--=-OuWWJ-=---------------<-<=<nWWWJd-#<3333333333333<3333333333333-3fJWWWn3<63333333346466666446666666669999999969Q",
"Q=======##-#---=-JWEt+-------------<-<-<#qFWWRx3#<<<<<<33333333333333333333333333-3vEWWHr<6333333336466664634646666666699999969Q",
"Q======###====-OxWWcO----#------------<OuYWWJt#<3<<<<3<33333333333<3333333333333333-uJWWYa-633333334646666444666664696999999969Q",
"Q========##==-#0TWJ-----------------<<OsEWWM<=3<<<<-<<<<3333333333333333333333333333<3NWWEf-43333333636666663664666666669999969Q",
"Q=======#=#==-ONWWaO------#---------<OfWWWl#-3<<<<<<<<3<33333333333<333333333333333333-xWWWj-4333333444666644466666469699999968Q",
"Q#=======###-OrEWAO-----------------OdWWEdO<<<-<<<<<-<<<<333333333333333333333333333333=fEWWf-633333363646666366466666666999968Q",
"Q=#=#======#-OZWWtO-=------#------<OuEWEsO<--<<<<<<<<<<3<33333333333<3333333333333333334=fEWEa<63333334466664446666646969999968Q",
"Q#========#=OrEWVO-===-=----------#qTWWdO3<---<-<<<<<<<<3<<333333333333333333333333333334=fWWTr<4333334444666634646666666999968Q",
"Q##=#======-OmWWtO--==------#------HWWlO<--<-<<<<<<<<<-<<<33333333333<33333333333333333334=xWWH33333333636666444666664696699968Q",
"Q#####====#@4TWAO-=--=--=-------<OnWWMO<--<----<-<<<<<<<<<3<3333333333333333333333333333333-NWWm-433333444466663464666666699968Q",
"Q#####====-okWWaO---===------#-<OiWWJ-----<<<-<<<<<<<<<<<<3<3333333333<3333333333333333333333JWWa<43333363666644466666469669968Q",
"Q###=###==##HWJ-=-----=--=------<JWEr#<-<-<-----<-<<<<<-<<<<<3333333333333333333333333333333<uEWK433333344446666346466666669968Q",
"Q######==#OtWWxO-===-===-------OxWWxO<-----<<<-<<<<<<<<<<<3333333333333<333333333333333333334=vWWc-4333336364664446666646966668Q",
"Q####=##==OcWErO-==----==-=---#6TWJ<------------<<-<<<<<-<<<<<3<3333333333333333333333333333336JWTr3333334446666634646666666968Q",
"Q#######=##JWD##=-#==-===-----OvWWsO<-----<-<<<--<<<<<33333333333333<-==<33333333333333333333339rr63333333634466444666666666668Q",
"Q########OrEWxO-#===----==---#4TWF=------------<-<<<-6LTTTTTTTTTTTTTDZndq=-3333333333333333333333333333333444666663464666666668Q",
"Q#######$OkWWtO###-#==-===---OlWWsO<-------<-<<----<-qEWWWWWWWWWWWWWWWWWRZu-333333333333333333333333333333363446644466666666668Q",
"Q#######=OZWL-#=##===----==---JWJ--------------<<-<<-6RWWWWWWWWWWWWWWWWWWWWn-33333333333333333333333333333344466666446666646968Q",
"Q########-LWZO-==##-#==-===-OuWWxO----------<-<<---<-qRWWWWWWWWWWWWWWWWWWWWWn-3333333333333333333333333333334344664634646666668Q",
"Q#######OrEWlO-=###===----=-OnWEq#--------------<<-<-qRWWWWWWWWWWWWWWWWWWWWWWi-333333333333333333333333333334446666444666664668Q",
"Q#######osWWyO#===##====-====JWD#------------<-<-----qRWWWWWWWWWWWWWWWWWWWWWWC-333333333333333333333333333333434466663464666668Q",
"Q#######ocWT6O===#=##-#----OrEWxO--#------------<<<<-6RWWWWWWWLnmnNPWWWWWWWWWP3333333333333333333333333333333464666644466666468Q",
"Q#######OZWJ-#====###====--OgWWy+--#----------<----<-qRWWWWWWWNo#+=3MWWWWWWWWT6<33333333333333333333333333333344446666366466668Q",
"Q#######OHWSO-======#=-#---OmWP3#---#------------<<<-6RWWWWWWWC-333-3TWWWWWWWRq<33333333333333333333333333333336366664446666648Q",
"Q######@-LWMO$#====###====-#FWD#-------------------<#6RWWWWWWWC#33333JWWWWWWWI3333333333333333333333333333333334444666634646668Q",
"Q######O6TWxO$====#==#=-#-=3PWmO-----#------------<<-6RWWWWWWWC-333-qTWWWWWWWD-333333333333333333333333333333333636666444666468Q",
"Q######OqRWgO--##-=####==-#qRWlO-=-----------------<-6RWWWWWWWNo##=3ZWWWWWWWWl#333333333333333333333333333333333444466664466668Q",
"Q######OtWWaO#O<-O====#=--OyWWsO------#------------<-6RWWWWWWWJxvcMPWWWWWWWWL3<333333333333333333333333333333333363646644466468Q",
"Q######ouWWuO-nPLxO####@#=OaWWuO--=----------------<-6RWWWWWWWWWWWWWWWWWWWWTr-33<3333333333333333333333333333333344466666446668Q",
"Q######ouWWu.cL6rPj@<----3OsWWrO------------------<<-6RWWWWWWWWWWWWWWWWWWRDt=33333333333333333333333333333333333336344664446648Q",
"Q######opWWt.LuoosWWWWWWWW6sWWrO-=-----------------<-6RWWWWWWWWWWWWWWWWWWm3+33333<333333333333333333333333333333333446666644668Q",
"Q######ouWWt Dc XMHxvvvvcv-sWWrO-=------#----------<-6RWWWWWWWWWWWWWWWWWWWIx<<3333333333333333333333333333333333333444466443668Q",
"Q######ouWWuXtTBZP4.oXXXXoosWWrO-==------------------6RWWWWWWWWWWWWWWWWWWWWWD3<333<33333333333333333333333333333333444666664468Q",
"Q######OyWWpOO6vx3@-------OaWWuO-==------#---------<=6RWWWWWWWWRRRRWWWWWWWWWWM=333333333333333333333333333333333333344446646348Q",
"Q######OrEWdo#O.X#=#====#=OyWWsO--==-----------------6RWWWWWWWZ<646aSWWWWWWWWWr-333<3333333333333333333333333333333334466664448Q",
"Q######O0TWlo###-=#=======OqRWlO-===------#---------=6RWWWWWWWN#<--#=DWWWWWWWWl#33333333333333333333333333333333333334444666648Q",
"Q######O3PWvo########=====#<PWmo---==---------------=6RWWWWWWWC=3<<3#dWWWWWWWWM=33333333333333333333333333333333333333446666447Q",
"Q########JWZo#####=#=======OFWD#-====--=---#--------=6RWWWWWWWC=3<<3=aWWWWWWWWZ-33333<33333333333333333333333333333333444466648Q",
"Q#######ODWDO#########====#OmWP3#---==--------------=6RWWWWWWWC-3333OcWWWWWWWWV=33333333333333333333333333333333333333363666648Q",
"Q@######OmWL3@#####=#=#===$ofWWtO--====-=---#-------=6RWWWWWWWNoOOO=aTWWWWWWWWn#33333333333333333333333333333333333333344446648Q",
"Q#######okWWwO########=====OrEWxO-=--==-------------=6RWWWWWWWLnnnnDWWWWWWWWWWs=33333333333333333333333333333333333333336366648Q",
"Q#@#####ouWWsO##########===##JWD#---====-=----------=6RWWWWWWWWWWWWWWWWWWWWWWL3<3333333<333333333333333333333333333333334444648Q",
"Q#######O6TWno#######=#=====OnWEq#----=-------------=6RWWWWWWWWWWWWWWWWWWWWWWf=333333333333333333333333333333333333333333636648Q",
"Q##@#####OFWDO###########==#OyWWzO-=-====-=---------=6RWWWWWWWWWWWWWWWWWWWWWc=3333333333<33333333333333333333333333333333444448Q",
"Q########onWT6O#######=#====##JWJ-=----==------$----=6RWWWWWWWWWWWWWWWWWWWEl=33333333333333333333333333333333333333333333363648Q",
"Q###@####oaWWso###########==-olWWsO---====----------#6EWWWWWWWWWWWWWWWWWRNr=3<<3333333333<3333333333333333333333333333333344448Q",
"Q########O3IWNo########=#===#@3TWF#-=---===-=---#---=6LTTTTTTTTTTTTTPAmf9#=33<333333333333333333<<33333333333333333333333334448Q",
"Q#########OZWP<@###########==-ocWWsO-=-===------------<<<<333333<3333-=#-3<<<<3<3333333333<33336eq63333333333333333333333333648Q",
"Q#########ofWWaO########=#===#@4TWJ-=----==--=---#------------------<<33<<<<<<<<333333333333333JWUq<333333333333333333333333448Q",
"Q#########O3UWCO############=#-OzWWxO-=-===------------------<-<<<-<<<<<<<<<<<3<<333333333333=cWWx=3333333333333333333333333348Q",
"Q######@###oNWT6O########=#===##-JWErO-=--==--=---#----------<-<-----<-<<<<<-<<<<33333333333-yEWJ333333333333333333333333333348Q",
"Q##########OyWWxo############===OuWWJ-=-=-==--------------------<<<-<<<<<<<<<<<3<3333333333<3JWWa=33333333333333333333333333347Q",
"Q#######@####HWP<@########=#===#-OnWWMO--=-===-=---#------------------<-<<<<<-<<<<333333333=NWWn=333333333333333333333333333338Q",
"Q@#@########ofWWjo############==###GWWlO--=-=------------------<-<<<--<<<<<<<<<<3<33333333#xWWH33333333333333333333333333333337Q",
"Q##@#####@###-LWL-#########=#=#===O6TWWsO--====-=-------------------<--<<<<<<<<<<<<333333#fWWTe-3333333333333333333333333333337Q",
"QO###########ojWWko###########===#-OyEWEaO--==-------#----------<-<<<---<-<<<<<-<3<33333#sEWEi=33333333333333333333333333333337Q",
"QO##@#####@###$LWP3#############==#-osWWEsO--===-=------------------<<-<<<<<<<<<<333333#fEWWf#3<3333333333333333333333333333337Q",
"QOO###########ofWWno#########=#====#-ofWWWlO=-=-------#----------<-<<<---<-<<<<<-<3<3<=lWWWf#3333333333333333333333333333333337Q",
"Q#O##@#####@###ODWEtO############====-osEWWm-O--=-=------------------<<-<<<<<<<<<<33-3MWWEf#3333<333333333333333333333333333337Q",
"QOOO###########OtEWH##########=#=======oyIWWHrO=-------#----------<-<<<---<-<<<<<3<=yJWWYi#333333333333333333333333333333333337Q",
"Q##O##@#####@###onWWxo############=====-O0FWWRx-O---------------------<<-<<<<<<3<#3cRWWGe=3333333<33333333333333333333333333337Q",
"Q#OOO############-KWWtO########=#======#-O-nWWWJs#O-----#----------<-<<<---<<3<#-dJWWWn3-33333333333333333333333333333333333337Q",
"Q###O##@#########OtWWL-O###########=====#==OiJWWWFs-O#-----------------<<<3<=O<dFWWWJa#<3333333333<3333333333333333333333333337Q",
"Q##OOO########@###oxWWZO########=#=======#=-O-zTWWWJxq#O+#-<<-<<<--<<<<<=#O-rxJWWWTx3=33333333333333333333333333333333333333337Q",
"Q####OO############OAWWbo###########=====###-=O6vTWWWEDxy3#OOO#######OO=6yxDEWWWTn6#-3<<33333333333<333333333333333333333333337Q",
"Q###O#O##@#####@###O-LWWjX#######=#=======#===-#O3lJWWWWWPDmlfitrrtifzMDPWWWWWJl6#-3<<<<<33333333333333333333333333333333333337Q",
"Q#####OO############OqTWWso##########=====###-#--#O=unJEWWWWWWWWWWWWWWWWWWEJnu<#-3<<<<<3<33333333333<33333333333333333333333337Q",
"Q######O##@#####@####ouEWWao######=#=======#=====--=OO=rjMFPRWWWWWWWWRPFMjt-@#<3<<<<<-<<<<3333333333333333333333333333333333337Q",
"Q#####OOO#############oaWWEao#########====####-#--=----#OO#3euadsasaur3=#O#<<<<<<<<<<<<<<<3333333333333333333333333333333333337Q",
"Q#######O##@#####@#####ofWWWfX#####=#=======#=====-===-----=#+#XaM#O#=-<<<<<---<<<<<<<-<3<<33333333333<333333333333333333333337Q",
"Q######OOO##############osWWWzo########====####-#----=--------3OmW3-<---<-<<<---<-<<<<<<<<<<33333333333333333333333333333333337Q",
"Q########O##@#####@######XaEWWM#O###=#=#=====#=====-====-=-----OvW<----------<-<<<<<<<<<<3<333333333333<33333333333333333333337Q",
"Q#######OOO###############orPWWF6o#####=====####-#-=--=-------<onW3------<-<<----<-<<<<<-<<<33333333333333333333333333333333337Q",
"Q#########O##@#####@#######o4FWWTsOO#####=====#====--====-=---<obW3----------<<-<<<<<<<<<<3<<33333333333<3333333333333333333332Q",
"Q########OOO################O#mWWWN3o#-#=====####====--=-------obW3=------<-<<----<-<<<<<-<<<3333333333333333333333333333333337Q",
"Q#O########O##@#####@#########OdTWWPf@O--=#====###-#--====-=--<OvW<-----------<<-<<<<<<<<<<3<<33333333333<333333333333333333332Q",
"QO########OOO##################o6AWWWDyOO--=#=#=#=====--==-----.mW3#-------<-<<----<<<<<<<-<<<333333333333333333333333333333337Q",
"Q#O#########O##@#####@##########OOfPWWWBrOO=-==####-#--=-==---#bPKJr#----------<<-<<<<<<<<<<3<<33333333333<33333333333333333337Q",
"Q#O#@######OOO####################o3nEWWECu@O#--=#=====-====-OsIqOnF#-------<-<<----<<<<<<<-<3<33333333333333333333333333333332Q",
"Q=OO#########O@####################OorNEWWWDf3OO##---#----=-<oMm.-3P3=----------<<-<<<<<<<<<<<<<33333333333<3333333333333333332Q",
"QQO#@#######O#O@#@#####@#############OOrNRWWWPNa3OOO#--------OfL3XxJ=--------<-<<----<<<<<<<-<3<333333333333333333333333333333QQ",
"QQ&@OO#######OOO#######################OOqcLWWWWPZjr3OOOO##=---CLHPu#<-----------<<-<<<<<<<<<<<<<33333333333<33333333333333332QQ",
"QQ*@###########O##@#####@################OO<sZIWWWWWLAbfyq4<=#Oouf4+----------<-<-----<<<<<<<-<3<33333333333333333333333333332QQ",
"QQQO@O########OOO#########################-#OO4fBLWWWWWWWRPJHDDZ#o#--------------<<<-<<<<<<<<<<<3<333333333333333333333333333QQQ",
"QQQ*@+#@########O##@#####@#################=#-@OO<tjNJIWWWWWWWWW3=--#------------------<<<<<<<-<3<333333333333<33333333333332QQQ",
"QQQQO@O#@######OOO############################=--#OOO@4tslbMZSDD3#--------------<-<<<--<<<<<<<<<<<<333333333333333333333333<QQQQ",
"QQQQQO#O#@#######O##@#####@#################=#=##==--##OOOOOOOOO---------------------<--<<<<<<<<<33<33333333333<333333333333QQQQ",
"QQQQQ=O@O#######OOO############################=====###---------------#----------<-<<---<<<<<<<<-<<<33333333333333333333331QQQQQ",
"QQQQQQ*O@O@#######O##@#####@#####################=====#=====-====-=-----------------<<<-<<<<<<<<<<3<<33333333333<333333332QQQQQQ",
"QQQQQQQ*O@#@#@###OOO##########################=#=====####-#-=--=-------#----------<--<---<<<<<<<<-<<<33333333333333333333QQQQQQQ",
"QQQQQQQQ=O@###O####O@#@#####@#####################=====##===--====-=----------------<<<<-<<<<<<<<<<3<<33333333333<3333<<QQQQQQQQ",
"QQQQQQQQQQ&O@@##@#OOO##########################=#=====#=##====--=-------#----------<--<---<<<<<<<<-<<<33333333333333<2QQQQQQQQQQ",
"QQQQQQQQQQQQ*&O@#+##O@#@#####@####################=====####-#--====------------------<<<<-<<<<<<<<<<3<<33333333333<2>QQQQQQQQQQQ",
"QQQQQQQQQQQQQQ#*O@O+OO##########################=#=======#====---===-=---#----------<-<<---<<<<<<<<-<<<33333333323QQQQQQQQQQQQQQ",
"QQQQQQQQQQQQQQQQQ*@@#O@#@#####@###################======##=#-#--=-=-------------------<<<<--<<<<<<<<<3<33333337QQQQQQQQQQQQQQQQQ"
};
