/* XPM */
static char *_516859541438[] = {
/* columns rows colors chars-per-pixel */
"32 32 65 1 ",
"  c #0062B3",
". c #0D6BB6",
"X c #0F6DB9",
"o c #106EB7",
"O c #126EB8",
"+ c #1671BA",
"@ c #1C75BC",
"# c #3E78A8",
"$ c #2977B6",
"% c #2E78B3",
"& c #2077BC",
"* c #247ABE",
"= c #297DBF",
"- c #427CAA",
"; c #1674C2",
": c #1D7BC5",
"> c #267BC0",
", c #2B7EC0",
"< c #3B80B7",
"1 c #4780AE",
"2 c #4E84B0",
"3 c #2E81C2",
"4 c #2C83CA",
"5 c #3484C4",
"6 c #3887C5",
"7 c #3A88C6",
"8 c #3286C9",
"9 c #3589CA",
"0 c #428CC6",
"q c #458EC8",
"w c #4C92CA",
"e c #5296CB",
"r c #5699CD",
"t c #5B9BCE",
"y c #619ECF",
"u c #66A1D0",
"i c #6BA4D2",
"p c #70A7D4",
"a c #73AAD5",
"s c #7BAED7",
"d c #7FB0D7",
"f c #7DB0D8",
"g c #83B3D9",
"h c #89B7DB",
"j c #8BB8DC",
"k c #93BDDE",
"l c #98C0DF",
"z c #9CC2E0",
"x c #A2C6E2",
"c c #A6C8E4",
"v c #ACCCE5",
"b c #B1CEE7",
"n c #B2D0E7",
"m c #B3D1E8",
"M c #BDD6EC",
"N c #C5DBEC",
"B c #CCDFEF",
"V c #CDE0EF",
"C c #D0E2F0",
"Z c #DEEAF5",
"A c #E4EEF6",
"S c #EBF3F8",
"D c #F6F8FB",
"F c #FEFFFF",
"G c None",
/* pixels */
"GGGG=,,,,3335555555556556777GGGG",
"GG-,,=,,,,53****55555556677772GG",
"G-:=,,=,3,@,eahh655555555666792G",
"G***,,,3@5fczsit555555555577779G",
"=*>**,,@ivs7*&*,555555555666679G",
"*****=@kz5@,55,,>,5555555557679G",
"*****@xs+=5,@,0rte6*,6555556769G",
"***,+ksO,,*,scxkkzcze>555555779G",
"***+izO,,@wbg7****5yvk355555678G",
"***=v,*,@tb7@,55555>*gc35555569G",
"**Osa+,@qm,*5,,335555@gz,555569G",
"**&x5*=@vw@3,,533,*555*kt,65569G",
"*@0k+,@tk+,,@sAZSVh355536555568G",
"=Oia+,+ke@,3@jFAMFFa>5555555558G",
"=OftO@@x5*,,@gFcOBFf*5555555558G",
"=Ogautez**=,@hFSAFN355555555568G",
"=Ogitwwz***,@gFANDZr=5555555568G",
"=Ost.@@z3**,@gFc vFx@5555555558G",
"*ousO=+ke@>=@hFAMDFs*5555555558G",
"*@0k+*+tk+,=@sAZSCg,335,5555558G",
"*&@z5@*@vq@,*=,,=*@,35*ke,55555G",
"&*oid.*@0n*@,=,,=,535@fz>555558G",
"@@&&v5@*+tb6+*,,3,,*&gc=3555558G",
"&@*OrxO**+wvf6@@@@,tcj*35555558G",
"*@@*.gj.*,@*axzkjlxkw@553555558G",
"&@@@*OkjO@=*+@6tgq5@*3333355554G",
"@@@@&*Osx6O@=,&3i+,,,,,35355553G",
"$@@@&&*Oech0@@X0g3>,=,,33335553G",
"G@@@@&&*+@yzzhpst=,,,,,,3335553G",
"G#;&@@&&**O@5eai**=,==,,,353541G",
"GG#;@@&&****@@O+**=,,,,,,33331GG",
"GGGG%@&@&**&***=>**,,,,,,33<GGGG"
};
